<svg width="210" height="503" viewBox="0 0 210 503" fill="none" xmlns="http://www.w3.org/2000/svg">
<g clip-path="url(#clip0_15_88)">
<path d="M181.761 70.9995C181.761 70.9995 182.336 63.024 183.074 59.5513C184.401 53.371 185.831 50.0601 188.766 50.3103C191.7 50.5604 187.276 57.7708 189.001 58.0798C191.213 55.3722 192.467 52.2674 193.455 46.97C194.856 39.4507 200.444 44.9246 197.171 53.5917C198.454 48.9418 198.763 43.1588 200.651 43.3648C204.529 43.7916 201.89 54.7689 201.89 54.7689C201.89 54.7689 202.848 45.3661 204.972 45.8075C208.171 46.4697 206.019 56.6524 206.019 56.6524C206.019 56.6524 206.889 47.073 209.292 48.4856C211.711 49.8983 208.216 68.1006 194.03 76.135L181.761 71.0142V70.9995Z" fill="#E5AF8F"/>
<path d="M196.905 54.6218L198.336 48.2944" stroke="#37271F" stroke-width="0.57" stroke-miterlimit="10"/>
<path d="M201.447 55.2398L202.819 49.3832" stroke="#37271F" stroke-width="0.57" stroke-miterlimit="10"/>
<path d="M205.163 56.4464L206.653 52.0908" stroke="#37271F" stroke-width="0.57" stroke-miterlimit="10"/>
<path d="M195.814 83.9192L196.419 75.1196L179.284 69.7928L176.025 78.6071C177.927 79.9903 181.157 81.9768 185.61 83.1393C189.872 84.2576 193.514 84.1546 195.814 83.9192Z" fill="white"/>
<path d="M117.483 114.541C122.231 143.544 142.522 159.642 160.527 156.111C172.471 153.771 181.334 138.129 185.315 131.022C186.332 129.197 188.943 131.213 194.163 116.086C197.834 105.462 200.061 98.4134 198.011 90.0112C197.363 87.3625 196.478 85.2877 195.814 83.9339C189.223 81.5059 182.616 81.0498 176.025 78.6218C174.727 79.7549 172.81 79.6519 171.041 82.33C166.204 89.6139 162.635 93.9548 161.323 101.724C160.482 106.683 157.961 104.373 153.286 112.819C140.251 99.9143 131.904 89.3931 118.869 76.4882C118.869 76.4882 110.906 102.798 117.497 114.556L117.483 114.541Z" fill="white"/>
<path d="M81.1481 473.644L82.3573 497.909C89.922 497.482 96.0712 497.526 100.289 497.629C110.006 497.894 115.138 498.703 124.192 498.115C128.999 497.806 132.878 497.232 135.384 496.805C135.296 494.951 135.207 493.097 135.104 491.258C134.323 490.021 132.966 488.329 130.577 487.255C128.129 486.151 126.596 486.578 123.234 485.828C121.803 485.504 117.438 484.533 114.799 481.972C111.23 478.514 112.395 473.673 112.72 472.467C102.191 472.849 91.6621 473.232 81.1481 473.614V473.644Z" fill="#37271F"/>
<path d="M125.047 191.515C125.047 191.515 145.722 278.318 129.737 356.086C113.752 433.855 113.693 475.748 113.693 475.748L78.3464 476.631L55.3129 190.632" fill="#59473D"/>
<path d="M135.266 494.598C132.037 495.172 126.95 495.878 120.697 495.893C111.378 495.907 107.19 494.362 97.8997 494.333C94.2427 494.333 88.8456 494.539 82.254 495.701" stroke="#4B3D35" stroke-width="0.57" stroke-miterlimit="10"/>
<path d="M76.8275 457.531L114.74 456.148" stroke="#37271F" stroke-width="0.57" stroke-miterlimit="10"/>
<path d="M30.8637 476.807L29.9937 501.072C35.3171 500.557 39.5492 500.557 42.1593 500.616C56.9792 500.955 63.5707 504.339 74.6156 502.397C78.5233 501.705 81.502 500.616 83.1094 499.969C83.1683 498.115 83.2421 496.261 83.3011 494.421C82.6227 493.185 81.3988 491.493 79.1279 490.419C76.7685 489.315 75.2054 489.742 71.9023 488.991C70.5014 488.668 66.225 487.696 63.7919 485.136C60.5183 481.678 62.0813 476.837 62.5237 475.63C51.9655 476.013 41.4072 476.395 30.849 476.778L30.8637 476.807Z" fill="#37271F"/>
<path d="M95.7468 194.678C95.7468 194.678 110.272 281.482 88.7718 359.25C67.2719 437.018 64.249 478.912 64.249 478.912L28.9024 479.721C28.6518 428.145 32.6332 373.877 35.8331 317.151C38.163 275.993 41.3629 236.277 45.2412 198.092" fill="#59473D"/>
<path d="M100.539 265.472C100.362 293.827 97.6048 327.304 88.7719 359.25C84.6577 374.112 81.2218 387.679 78.3611 399.878" stroke="#37271F" stroke-width="0.57" stroke-miterlimit="10"/>
<path d="M83.1978 497.776C80.1011 498.718 75.574 499.763 70.0737 499.954C59.7809 500.307 54.9442 497.305 44.0468 497.276C40.5962 497.276 35.8184 497.555 30.0822 498.865" stroke="#4B3D35" stroke-width="0.57" stroke-miterlimit="10"/>
<path d="M28.991 460.695L66.6674 459.326" stroke="#37271F" stroke-width="0.57" stroke-miterlimit="10"/>
<path d="M126.109 196.326C120.963 198.902 114.991 201.374 108.222 203.287C83.8466 210.188 62.273 206.347 49.901 202.948C46.7158 191.647 42.6311 174.975 39.8589 154.462C34.1521 112.216 31.0554 89.3195 44.5334 75.3992C64.7356 66.6439 95.3486 61.1552 116.849 74.6341C134.706 85.8174 126.109 196.326 126.109 196.326Z" fill="#AB7658"/>
<path opacity="0.4" d="M126.493 190.632C126.493 190.632 87.2235 210.806 48.4559 194.678" stroke="#37271F" stroke-width="0.57" stroke-miterlimit="10"/>
<path opacity="0.4" d="M46.7306 74.4869C60.4593 75.5905 63.8066 147.473 42.1888 151.564" stroke="#37271F" stroke-width="0.57" stroke-miterlimit="10"/>
<path d="M98.932 51.3403L98.7698 65.0841L85.8079 73.5598L71.9612 64.0834L75.0137 35.8602L98.932 51.3403Z" fill="#E5AF8F"/>
<path d="M108.827 17.9669C108.827 17.9669 122.157 60.1987 98.2831 61.8762C79.0984 63.23 73.082 59.1981 71.7401 18.8498C91.6179 18.6291 108.827 17.9522 108.827 17.9522V17.9669Z" fill="#E5AF8F"/>
<path d="M83.7876 23.3526C88.182 27.149 80.6025 34.9332 80.6025 34.9332V42.2612H76.8717C76.2671 33.2557 76.2818 32.0049 74.0994 31.1809C72.0644 30.401 69.2922 32.9026 68.8055 33.344C68.2009 31.2398 67.906 29.4445 67.7586 28.1643C67.4047 25.1625 67.4047 21.3072 68.8055 17.9669C71.5926 11.2716 83.7876 23.3526 83.7876 23.3526Z" fill="#37271F"/>
<path d="M75.7805 32.6818C68.7613 22.6462 68.0093 32.9173 68.4517 38.9062C68.894 44.9099 73.1704 47.0877 75.5593 44.6009" fill="#E5AF8F"/>
<path d="M98.9319 63.8186L102.206 69.7781L100.908 105.182L94.2869 127.77L70.059 70.0871L72.1824 62.0969L92.9892 66.7174L98.9319 63.8186Z" fill="white"/>
<path d="M102.206 69.7781L99.8315 77.9008L95.4666 75.0902" fill="white"/>
<path d="M102.206 69.7781L99.8315 77.9008L95.4666 75.0902" stroke="#B7BDBF" stroke-width="0.57" stroke-miterlimit="10"/>
<path d="M70.059 70.0872L83.5664 79.9903L90.0253 74.9578" fill="white"/>
<path d="M70.059 70.0872L83.5664 79.9903L90.0253 74.9578" stroke="#B7BDBF" stroke-width="0.57" stroke-miterlimit="10"/>
<path d="M95.4666 73.8689L101.011 105.756L94.2869 127.77L84.9673 105.594L90.1285 73.8689" fill="#37271F"/>
<path d="M95.4666 66.7321L97.015 69.7634L95.4666 75.0902H90.1285L88.7719 69.6898L90.1432 66.6586L95.4666 66.7321Z" fill="#37271F"/>
<path d="M91.9718 60.1987C95.0685 61.5525 98.6518 61.7732 102.191 60.8609" stroke="#37271F" stroke-width="0.57" stroke-miterlimit="10"/>
<path d="M92.8123 38.6708C93.6593 38.6708 94.3459 37.4454 94.3459 35.9338C94.3459 34.4222 93.6593 33.1968 92.8123 33.1968C91.9653 33.1968 91.2787 34.4222 91.2787 35.9338C91.2787 37.4454 91.9653 38.6708 92.8123 38.6708Z" fill="#37271F"/>
<path d="M107.028 35.8602C107.028 37.3612 106.408 38.5972 105.627 38.5972C104.845 38.5972 104.226 37.3759 104.226 35.8602C104.226 34.3446 104.845 33.1233 105.627 33.1233C106.408 33.1233 107.028 34.3446 107.028 35.8602Z" fill="#37271F"/>
<path d="M100.598 41.8934C104.639 39.0828 107.028 44.9246 101.041 46.2343" stroke="#37271F" stroke-width="0.57" stroke-miterlimit="10"/>
<path d="M95.3634 50.1631C95.7615 52.0025 99.8905 53.5034 101.513 50.6635" stroke="#37271F" stroke-width="0.57" stroke-miterlimit="10"/>
<path d="M90.2317 75.4139H95.5256" stroke="#37271F" stroke-width="0.57" stroke-miterlimit="10"/>
<path d="M35.2581 227.699L43.6486 239.794L63.084 226.198L55.3276 214.264L35.2581 227.699Z" fill="white"/>
<path d="M44.5187 75.4139C20.6446 107.404 -5.63302 148.944 1.06173 176.138C7.99242 204.317 25.4371 220.179 25.4371 220.179C29.2121 223.608 32.707 226.065 35.2581 227.699C41.9528 223.225 48.6328 218.737 55.3276 214.264C54.6935 211.13 53.8087 207.775 52.5848 204.302C47.8218 190.646 40.0211 180.846 33.8129 174.548C36.2461 163.733 44.7841 155.272 47.2172 144.456C47.2172 144.456 62.391 91.9241 44.5187 75.4287V75.4139Z" fill="white"/>
<path d="M44.3269 231.745C45.0642 232.761 45.1674 233.967 44.5629 234.423C43.9583 234.879 42.867 234.423 42.1445 233.408C41.4219 232.393 41.304 231.186 41.9085 230.73C42.5131 230.274 43.6044 230.73 44.3269 231.745Z" fill="#BBC0C2"/>
<path d="M192.88 79.6518C192.629 80.8732 191.803 81.7414 191.051 81.5942C190.299 81.4471 189.886 80.3287 190.137 79.1221C190.388 77.9155 191.213 77.0326 191.965 77.1797C192.717 77.3269 193.13 78.4452 192.88 79.6518Z" fill="#BBC0C2"/>
<path d="M41.5104 241.133L66.6084 224.417C66.6084 224.417 85.1296 255.083 61.9191 263.838" stroke="#37271F" stroke-width="0.57" stroke-miterlimit="10"/>
<path d="M55.3276 214.264C55.3276 214.264 48.9425 223.181 35.2581 227.699L55.3276 214.264Z" fill="white"/>
<path d="M55.3276 214.264C55.3276 214.264 48.9425 223.181 35.2581 227.699" stroke="#B7BDBF" stroke-width="0.57" stroke-miterlimit="10"/>
<path d="M189.016 58.0798C189.016 58.0798 195.991 57.7413 193.499 65.5844" stroke="#37271F" stroke-width="0.57" stroke-miterlimit="10"/>
<path d="M195.814 83.9191C188.795 87.3183 177.16 83.257 176.025 78.6071L195.814 83.9191Z" fill="white"/>
<path d="M195.814 83.9191C188.795 87.3183 177.16 83.257 176.025 78.6071" stroke="#B7BDBF" stroke-width="0.57" stroke-miterlimit="10"/>
<path d="M153.286 112.805C153.286 112.805 149.762 119.868 148.597 121.207L153.286 112.805Z" fill="white"/>
<path d="M153.286 112.805C153.286 112.805 149.762 119.868 148.597 121.207" stroke="#B7BDBF" stroke-width="0.57" stroke-miterlimit="10"/>
<path opacity="0.4" d="M105.818 69.5427C105.818 69.5427 110.552 107.654 94.4639 132.405C81.0301 115.35 65.6499 69.0129 65.6499 69.0129" stroke="#37271F" stroke-width="0.57" stroke-miterlimit="10"/>
<path d="M27.6638 170.855L36.4083 177.285" stroke="#B7BDBF" stroke-width="0.57" stroke-miterlimit="10"/>
<path d="M115.285 23.8529C124.841 31.7106 96.2629 37.0374 82.0771 21.7339C103.798 23.5144 107.853 22.8522 115.285 23.8529Z" fill="#503D33"/>
<path d="M67.8028 17.6579C67.8028 17.6579 62.7891 6.37155 81.5757 1.76578C114.017 -6.18028 123.956 14.6708 115.285 23.8382C115.285 23.8382 103.798 30.298 67.8176 17.6579H67.8028Z" fill="#644A40"/>
<g opacity="0.4">
<mask id="mask0_15_88" style="mask-type:luminance" maskUnits="userSpaceOnUse" x="67" y="-1" width="52" height="27">
<path d="M67.8028 17.6579C67.8028 17.6579 62.7891 6.37155 81.5757 1.76578C114.017 -6.18028 123.956 14.6708 115.285 23.8382C115.285 23.8382 103.798 30.298 67.8176 17.6579H67.8028Z" fill="white"/>
</mask>
<g mask="url(#mask0_15_88)">
<path d="M123.735 20.6009H57.0529" stroke="#37271F" stroke-width="0.57" stroke-miterlimit="10"/>
<path d="M123.735 15.1416H57.0529" stroke="#37271F" stroke-width="0.57" stroke-miterlimit="10"/>
<path d="M123.735 9.6824H57.0529" stroke="#37271F" stroke-width="0.57" stroke-miterlimit="10"/>
<path d="M123.735 4.22314H57.0529" stroke="#37271F" stroke-width="0.57" stroke-miterlimit="10"/>
<path d="M108.959 -1.45679V25.5009" stroke="#37271F" stroke-width="0.57" stroke-miterlimit="10"/>
<path d="M102.471 -1.45679V25.5009" stroke="#37271F" stroke-width="0.57" stroke-miterlimit="10"/>
<path d="M95.9827 -1.45679V25.5009" stroke="#37271F" stroke-width="0.57" stroke-miterlimit="10"/>
<path d="M89.5092 -1.45679V25.5009" stroke="#37271F" stroke-width="0.57" stroke-miterlimit="10"/>
<path d="M83.0208 -1.45679V25.5009" stroke="#37271F" stroke-width="0.57" stroke-miterlimit="10"/>
<path d="M76.5325 -1.45679V25.5009" stroke="#37271F" stroke-width="0.57" stroke-miterlimit="10"/>
<path d="M70.059 -1.45679V25.5009" stroke="#37271F" stroke-width="0.57" stroke-miterlimit="10"/>
<path d="M114.873 -1.91296V25.0448" stroke="#37271F" stroke-width="0.57" stroke-miterlimit="10"/>
<path d="M123.735 20.6009H57.0529" stroke="#37271F" stroke-width="0.67" stroke-miterlimit="10"/>
<path d="M123.735 15.1416H57.0529" stroke="#37271F" stroke-width="0.67" stroke-miterlimit="10"/>
<path d="M123.735 9.6824H57.0529" stroke="#37271F" stroke-width="0.67" stroke-miterlimit="10"/>
<path d="M123.735 4.22314H57.0529" stroke="#37271F" stroke-width="0.67" stroke-miterlimit="10"/>
<path d="M108.959 -1.45679V25.5009" stroke="#37271F" stroke-width="0.67" stroke-miterlimit="10"/>
<path d="M102.471 -1.45679V25.5009" stroke="#37271F" stroke-width="0.67" stroke-miterlimit="10"/>
<path d="M95.9827 -1.45679V25.5009" stroke="#37271F" stroke-width="0.67" stroke-miterlimit="10"/>
<path d="M89.5092 -1.45679V25.5009" stroke="#37271F" stroke-width="0.67" stroke-miterlimit="10"/>
<path d="M83.0208 -1.45679V25.5009" stroke="#37271F" stroke-width="0.67" stroke-miterlimit="10"/>
<path d="M76.5325 -1.45679V25.5009" stroke="#37271F" stroke-width="0.67" stroke-miterlimit="10"/>
<path d="M70.059 -1.45679V25.5009" stroke="#37271F" stroke-width="0.67" stroke-miterlimit="10"/>
<path d="M114.873 -1.91296V25.0448" stroke="#37271F" stroke-width="0.67" stroke-miterlimit="10"/>
</g>
</g>
</g>
<defs>
<clipPath id="clip0_15_88">
<rect width="210" height="503" fill="white"/>
</clipPath>
</defs>
</svg>
