<svg width="124" height="42" viewBox="0 0 124 42" fill="none" xmlns="http://www.w3.org/2000/svg">
<g clip-path="url(#clip0_13_72)">
<path d="M123.5 20.9922H75.3434" stroke="#FCB500" stroke-width="0.75" stroke-miterlimit="10"/>
<path d="M48.6566 20.9922H0.500008" stroke="#FCB500" stroke-width="0.75" stroke-miterlimit="10"/>
<path d="M75.3434 20.9923L61.9923 1.37073L48.6566 20.9923L61.9923 40.6292L75.3434 20.9923Z" stroke="#FCB500" stroke-miterlimit="10"/>
<path d="M69.7405 20.9922L61.9923 9.59509L54.244 20.9922L61.9923 32.3894L69.7405 20.9922Z" stroke="#FCB500" stroke-miterlimit="10"/>
<path d="M63.8136 20.9923L61.9923 18.3279L60.1864 20.9923L61.9923 23.6722L63.8136 20.9923Z" fill="#FCB500"/>
<path d="M61.9922 9.59515V1.37073" stroke="#FCB500" stroke-miterlimit="10"/>
<path d="M61.9922 31.989V40.6293" stroke="#FCB500" stroke-miterlimit="10"/>
<path d="M54.244 20.9922H48.6566" stroke="#FCB500" stroke-miterlimit="10"/>
<path d="M69.7405 20.9922H75.3434" stroke="#FCB500" stroke-miterlimit="10"/>
<path d="M16.1509 16.3718H46.434L43.2853 20.9923" stroke="#FCB500" stroke-width="0.75" stroke-miterlimit="10"/>
<path d="M107.834 16.3718H77.566L80.6993 20.9923" stroke="#FCB500" stroke-width="0.75" stroke-miterlimit="10"/>
</g>
<defs>
<clipPath id="clip0_13_72">
<rect width="123" height="42" fill="white" transform="matrix(-1 0 0 1 123.5 0)"/>
</clipPath>
</defs>
</svg>
