<svg width="202" height="503" viewBox="0 0 202 503" fill="none" xmlns="http://www.w3.org/2000/svg">
<g clip-path="url(#clip0_12_793)">
<path d="M142.197 443.363L148.458 475.435C148.458 475.435 141.724 486.108 132.811 486.108C123.899 486.108 119.095 476.95 118.937 476.673L119.528 472.127L122.56 448.805L122.704 447.711L113.07 378.1C124.45 379.167 137.616 379.299 150.112 376.888L142.184 443.376L142.197 443.363Z" fill="#E88846"/>
<path d="M151.096 488.993C151.096 488.993 150.374 503 133.533 503C125.014 503 120.972 499.482 119.029 496.003C117.152 492.604 117.283 489.244 117.283 489.244L118.924 476.673C119.081 476.95 124.043 486.108 132.798 486.108C141.554 486.108 148.445 475.435 148.445 475.435L151.096 489.007V488.993Z" fill="#AF3737"/>
<path d="M122.717 447.698L122.573 448.792L119.541 472.114C115.629 478.426 105.443 476.7 105.443 476.7L117.9 448.173L102.884 376.848C106.047 377.322 109.473 377.731 113.083 378.074L122.717 447.685V447.698Z" fill="#C4532C"/>
<path d="M119.042 496.003H91.9232C91.9232 483.196 103.225 481.746 103.225 481.746L105.43 476.7C105.43 476.7 115.616 478.426 119.528 472.114L118.937 476.647L117.296 489.231C117.296 489.231 117.152 492.591 119.042 495.99V496.003Z" fill="#771818"/>
<path d="M187.417 233.25L181.326 252.198C180.604 244.016 179.79 235.912 178.924 228.046L185.828 232.275L187.417 233.237V233.25Z" fill="#F4E9DC"/>
<path d="M188.388 367.282C177.559 369.443 160.245 368.731 160.245 368.731V374.279C156.964 375.359 153.577 376.202 150.138 376.874C137.642 379.286 124.476 379.154 113.096 378.087C109.486 377.744 106.06 377.336 102.897 376.861C90.5449 375.03 82.0784 372.592 82.0784 372.592L82.3147 368.969C64.0429 369.1 49.6041 362.697 49.6041 362.697C50.8511 338.043 65.3818 274.309 75.384 232.723C75.9091 230.562 76.4079 228.454 76.9067 226.412C77.5499 223.737 78.1799 221.181 78.7706 218.756L97.4755 222.854L117.375 114.385L118.215 109.8C118.215 109.8 125.329 112.343 135.62 112.277C140.438 112.237 145.977 111.645 151.792 109.918L154.483 224.449L178.058 220.232C178.373 222.802 178.661 225.424 178.95 228.046C179.173 229.996 179.383 231.986 179.58 233.975C179.817 236.123 180.04 238.284 180.25 240.458C180.63 244.345 180.985 248.245 181.339 252.185C186.393 308.238 188.388 367.269 188.388 367.269V367.282Z" fill="#F4E9DC"/>
<path d="M118.189 109.8L117.349 114.385L97.4493 222.854L78.7444 218.756C82.3672 203.999 84.8218 194.38 84.8218 194.38C72.9557 201.548 61.0895 190.756 61.0895 190.756L63.8329 181.006L72.6932 149.487L73.0869 148.104L77.0642 150.463C77.0642 150.463 91.5031 94.5283 99.3526 89.6925C102.739 87.5974 108.173 86.1744 113.253 85.2388L116.338 100.603L118.189 109.787V109.8Z" fill="#6BB2AB"/>
<path d="M201.383 188.701C200.254 189.623 198.443 190.387 196.251 190.993C187.889 193.352 174.317 193.589 174.317 193.589C175.669 201.732 176.916 210.732 178.045 220.232L154.47 224.449L151.779 109.918L163.593 81.4308C171.613 83.0647 182.901 86.3061 191.276 92.4464C205.767 103.08 201.37 188.688 201.37 188.688L201.383 188.701Z" fill="#6BB2AB"/>
<path d="M60.2757 139.79L58.95 141.134L45.4299 154.798L44.0385 156.207L34.6533 146.075C25.5699 144.309 24.2441 137.55 24.2441 137.55C11.5904 137.589 11.8267 133.175 11.7348 130.065C11.6561 126.956 14.5701 125.295 14.5701 125.295C14.7539 122.634 17.6941 122.093 17.6941 122.093V120.894C17.6941 120.894 10.6847 114.425 11.2491 112.501C11.8267 110.564 32.7237 114.306 32.7237 114.306L45.233 128.484L60.2626 139.776L60.2757 139.79Z" fill="#F4E9DC"/>
<path d="M196.251 190.993L185.842 232.289L178.937 228.059C178.648 225.424 178.346 222.802 178.045 220.245C176.916 210.745 175.669 201.745 174.317 193.602C174.317 193.602 187.889 193.365 196.251 191.007V190.993Z" fill="#E88846"/>
<path d="M72.6932 149.501L63.8329 181.006L45.4299 154.798L58.95 141.134L72.6932 149.501Z" fill="#E88846"/>
<path d="M180.25 240.471C174.724 241.354 169.158 242.039 163.579 242.5C133.862 244.978 103.816 241.631 75.3578 232.723C75.8828 230.563 76.3816 228.454 76.8804 226.412C83.7323 228.586 90.6893 230.431 97.7249 231.893C124.634 237.586 152.435 238.284 179.567 233.962C179.803 236.11 180.027 238.271 180.237 240.445L180.25 240.471Z" fill="#771818"/>
<path d="M138.456 240.181C138.285 241.934 137.419 243.462 136.145 244.49C134.885 245.531 133.218 246.084 131.473 245.913L122.862 245.057C119.37 244.714 116.797 241.552 117.152 238.06C117.322 236.307 118.189 234.779 119.462 233.751C120.722 232.71 122.389 232.157 124.135 232.328L132.746 233.185C136.237 233.527 138.81 236.69 138.456 240.181Z" fill="#F2B34E"/>
<path d="M99.8645 240.695C97.5018 256.955 95.1391 273.215 92.7764 289.475L85.6882 338.254C84.3624 347.372 83.0367 356.504 81.7109 365.622C81.5928 366.452 82.866 366.663 82.9973 365.819L90.0855 317.04C92.4482 300.78 94.8109 284.52 97.1736 268.26C98.4994 259.142 99.8251 250.011 101.151 240.893C101.269 240.063 99.9958 239.852 99.8645 240.695Z" fill="#E2CAB0"/>
<path d="M153.656 319.188C152.199 303.31 150.952 287.419 149.915 271.502C149.324 262.581 148.812 253.648 148.353 244.727C148.314 243.884 147.014 244.042 147.067 244.872C147.88 260.789 148.904 276.707 150.125 292.611C151.346 308.502 152.776 324.392 154.404 340.244C155.323 349.138 156.294 358.032 157.344 366.9C157.436 367.73 158.736 367.585 158.631 366.755C156.767 350.917 155.113 335.065 153.656 319.188Z" fill="#E2CAB0"/>
<path d="M106.611 104.964C103.855 116.269 101.098 127.575 98.3419 138.88C95.5854 150.186 92.8289 161.491 90.0723 172.797C88.5103 179.214 86.9483 185.631 85.3863 192.048C85.1894 192.865 86.4757 193.062 86.6726 192.245C89.4292 180.94 92.1857 169.634 94.9422 158.329C97.6987 147.023 100.455 135.718 103.212 124.413C104.774 117.996 106.336 111.579 107.898 105.162C108.095 104.345 106.808 104.147 106.611 104.964Z" fill="#389688"/>
<path d="M168.462 135.454C168.2 130.158 167.924 124.874 167.635 119.577C167.596 118.733 166.297 118.892 166.349 119.722C167.347 138.406 168.252 157.09 169.079 175.788C169.316 181.085 169.539 186.382 169.762 191.665C169.801 192.509 171.088 192.351 171.048 191.521C170.274 172.823 169.407 154.139 168.462 135.454Z" fill="#389688"/>
<path d="M146.253 225.542C148.747 225.542 150.768 223.513 150.768 221.01C150.768 218.506 148.747 216.477 146.253 216.477C143.759 216.477 141.737 218.506 141.737 221.01C141.737 223.513 143.759 225.542 146.253 225.542Z" fill="#E2CAB0"/>
<path d="M104.971 222.867C107.464 222.867 109.486 220.838 109.486 218.335C109.486 215.831 107.464 213.802 104.971 213.802C102.477 213.802 100.455 215.831 100.455 218.335C100.455 220.838 102.477 222.867 104.971 222.867Z" fill="#E2CAB0"/>
<path d="M28.694 124.228C26.3837 123.569 24.126 122.739 21.9471 121.725C19.9781 120.815 17.8254 119.84 16.4209 118.114C15.8959 117.469 14.8326 118.233 15.3708 118.878C16.8672 120.71 19.0462 121.79 21.1332 122.779C23.1678 123.741 25.268 124.531 27.4207 125.19C25.9243 126.837 24.848 128.8 24.2179 130.909C24.2573 130.592 24.0998 130.25 23.706 130.171C20.4113 129.551 17.9829 126.718 17.7992 123.372C17.7467 122.528 16.4603 122.686 16.5128 123.517C16.7359 127.443 19.6631 130.737 23.5091 131.462C23.8766 131.528 24.1129 131.304 24.1917 131.027C23.6404 132.938 23.4435 134.941 23.6929 136.943C23.7979 137.774 25.0842 137.629 24.9792 136.798C24.4542 132.529 26.0031 128.247 29.1009 125.295C29.4947 124.913 29.1009 124.36 28.694 124.241V124.228Z" fill="#E2CAB0"/>
<path d="M22.8003 133.267C20.6738 133.544 18.4949 132.911 16.8803 131.502C15.292 130.118 14.3863 128.089 14.3207 125.981C14.2945 125.137 13.0081 125.295 13.0343 126.126C13.1131 128.55 14.2288 130.909 16.0665 132.503C17.9436 134.137 20.5032 134.875 22.9578 134.558C23.7847 134.453 23.6403 133.162 22.8134 133.267H22.8003Z" fill="#E2CAB0"/>
<path d="M23.7716 128.721C23.7322 127.878 22.4458 128.036 22.4852 128.866L24.1785 167.144C24.2179 167.987 25.5042 167.829 25.4649 166.999C24.9004 154.244 24.336 141.476 23.7716 128.721Z" fill="#771818"/>
<path d="M18.6918 137.391L16.4865 171.795C16.434 172.625 17.7204 172.836 17.7729 171.993L19.9781 137.589C20.0306 136.759 18.7443 136.548 18.6918 137.391Z" fill="#771818"/>
<path d="M36.1497 222.485C35.1389 223.263 32.9469 223.763 29.9147 224.067C27.3419 224.317 24.1654 224.422 20.6082 224.422C17.681 224.422 15.0164 224.356 12.7324 224.198C8.96518 223.908 6.23492 223.395 5.07981 222.485C3.21588 221.036 -0.210073 211.364 0.0130738 207.991C0.262473 204.605 13.4937 172.678 13.4937 172.678C13.4937 172.678 5.17169 162.651 9.76588 161.676C14.3601 160.714 15.9615 167.592 15.9615 167.592C15.4758 160.806 20.6213 161.136 20.6213 161.136C20.6213 161.136 25.7537 160.793 25.268 167.592C25.268 167.592 26.8694 160.714 31.4767 161.676C36.0709 162.638 27.7357 172.678 27.7357 172.678C27.7357 172.678 27.7882 172.81 27.8801 173.047C29.3503 176.565 40.9933 204.816 41.2164 207.991C41.4658 211.364 38.0398 221.036 36.1628 222.485H36.1497Z" fill="#6BB2AB"/>
<path d="M30.4266 220.061L29.9147 224.067C27.342 224.317 24.1654 224.422 20.6082 224.422C17.681 224.422 15.0164 224.356 12.7324 224.198L12.1286 219.995C11.5248 215.897 11.5642 211.746 12.273 207.662L18.0617 173.759H23.5091L23.5354 173.904L30.0328 207.609C30.8204 211.72 30.9517 215.923 30.4266 220.061Z" fill="#F4E9DC"/>
<path d="M37.6723 208.4C26.1343 212.392 13.31 212.168 1.92951 207.767C1.15507 207.464 0.616889 208.65 1.39134 208.953C10.501 212.484 20.5425 213.446 30.1641 211.707C32.8812 211.219 35.5459 210.508 38.1449 209.612C38.9324 209.335 38.4599 208.123 37.6723 208.4Z" fill="#389688"/>
<path d="M15.397 171.255C14.8195 169.239 13.9007 167.342 12.693 165.616C12.2074 164.93 11.1573 165.695 11.6429 166.38C12.7849 168.014 13.625 169.806 14.1763 171.716C14.2682 172.059 14.7145 172.204 15.0164 172.085C15.3708 171.953 15.4889 171.584 15.3839 171.242L15.397 171.255Z" fill="#389688"/>
<path d="M20.3063 165.616C20.2931 165.26 19.9256 165.009 19.5843 165.036C19.2168 165.075 18.9936 165.405 19.0068 165.76C19.0724 167.276 19.1249 168.778 19.1905 170.293C19.2037 170.649 19.5712 170.899 19.9125 170.873C20.28 170.833 20.5032 170.504 20.49 170.148C20.4244 168.633 20.3719 167.131 20.3063 165.616Z" fill="#389688"/>
<path d="M29.2059 166.195C29.009 165.919 28.5758 165.826 28.3002 166.05C26.7644 167.276 25.4911 168.791 24.5198 170.504C24.3492 170.807 24.5329 171.242 24.848 171.361C25.2024 171.505 25.5305 171.361 25.7012 171.031C26.1081 170.32 26.62 169.582 27.1976 168.91C27.8014 168.211 28.3527 167.671 29.0615 167.104C29.3371 166.88 29.4159 166.485 29.2059 166.195Z" fill="#389688"/>
<path d="M27.5651 172.415C22.9578 173.232 18.2586 173.245 13.6381 172.454C12.8112 172.309 12.6143 173.6 13.4412 173.745C18.1667 174.562 22.9972 174.549 27.7095 173.719C28.5233 173.574 28.3921 172.283 27.5651 172.428V172.415Z" fill="#771818"/>
<path d="M172.466 57.0279C172.138 60.7569 169.158 63.9851 165.522 64.499C166.48 65.8167 167.032 67.3978 167.071 69.0449C167.189 73.0374 164.498 76.4501 160.797 77.7282C157.056 79.0195 152.987 77.8732 150.02 75.3828C148.72 78.6637 145.728 81.1673 142.17 81.5758C138.534 81.9974 134.964 80.1 133.008 77.0694C130.37 80.1 126.235 82.1423 122.192 81.22C118.583 80.403 115.629 77.3066 115.314 73.604C113.529 74.1706 111.586 74.1179 109.788 73.5513C106.086 72.4049 103.238 69.124 103.185 65.1446C103.146 61.6265 105.036 58.1875 108.095 56.4745C104.918 53.7601 103.382 49.2011 104.537 45.1427C105.758 40.834 109.775 37.6057 114.198 37.25C114.907 34.8782 115.8 32.5855 116.981 30.4114C118.176 28.1977 119.672 26.129 121.418 24.3238C121.654 24.0603 121.864 23.7836 122.1 23.5464C125.658 19.8438 130.278 17.3535 135.371 16.6156C140.517 15.8513 145.977 16.8132 150.453 19.5144C158.775 24.5347 162.634 35.5502 158.972 44.6288C161.361 44.7342 163.75 45.2086 165.903 46.2891C169.893 48.2787 172.873 52.4557 172.479 57.0543L172.466 57.0279Z" fill="#36344C"/>
<path d="M163.592 81.4308L151.779 109.918C145.964 111.645 140.425 112.237 135.607 112.277C125.316 112.343 118.202 109.8 118.202 109.8L116.351 100.616L113.266 85.252C119.265 84.1584 124.765 83.7235 125.789 83.6445L126.393 76.1602C127.154 76.3842 127.968 76.5423 128.769 76.6478C129.569 76.7532 130.409 76.8059 131.249 76.7795C132.011 76.7532 132.772 76.6873 133.494 76.5555C133.77 76.5292 134.045 76.4765 134.282 76.4106C134.82 76.3052 135.332 76.1734 135.844 76.0021C136.093 75.9362 136.329 75.844 136.552 75.7518C136.592 75.7518 136.631 75.7517 136.671 75.7122C137.143 75.5277 137.589 75.3433 138.036 75.1193C138.219 75.0402 138.39 74.9612 138.561 74.8557C138.666 74.803 138.784 74.7372 138.889 74.6713C139.06 74.579 139.243 74.4868 139.414 74.3682C139.991 74.0256 140.543 73.6435 141.068 73.2087C141.304 73.0374 141.54 72.8397 141.75 72.6421C141.803 72.5894 141.855 72.5499 141.908 72.5103C142.157 72.2732 142.407 72.0492 142.63 71.7988C142.879 71.5484 143.129 71.2849 143.352 71.0214C143.575 70.771 143.785 70.5075 143.982 70.244C143.982 70.2176 143.982 70.2044 144.021 70.1781C144.244 69.8882 144.454 69.5851 144.625 69.2953C145.203 68.4388 145.701 67.5033 146.082 66.5282C146.213 66.2383 146.331 65.9353 146.423 65.6322C146.541 65.3291 146.633 65.0392 146.712 64.723C146.712 64.6967 146.712 64.6703 146.738 64.6571C146.896 64.0642 147.04 63.4449 147.132 62.8256C147.185 62.4962 147.224 62.1931 147.25 61.8505C147.29 61.5211 147.316 61.1917 147.329 60.8623C147.329 60.5197 147.329 60.2035 147.329 59.8477L147.303 58.7672L146.909 42.1385C148.445 43.4166 149.561 43.3507 149.705 43.443C150.217 41.5192 152.12 40.0829 154.115 39.9512C154.916 39.9116 155.717 40.0434 156.465 40.3465C157.712 40.8208 158.828 41.7037 159.602 42.8105C160.836 44.5761 161.309 46.8161 161.204 48.9639C161.085 51.5202 160.193 54.0764 158.46 55.9343C157.042 57.4759 155.047 58.5037 152.973 58.6486L153.643 79.9155C153.643 79.9155 157.751 80.2581 163.606 81.4572L163.592 81.4308Z" fill="#E88846"/>
<path d="M126.38 76.1734L125.645 85.3442C141.37 84.2242 145.688 67.411 145.688 67.411C143.089 72.8397 137.629 76.6346 131.236 76.7927C129.556 76.8322 127.928 76.6214 126.393 76.1866L126.38 76.1734Z" fill="#C4532C"/>
<path d="M147.985 60.7437C147.985 61.0863 147.985 61.3894 147.985 61.7188C147.985 62.0482 147.959 62.3644 147.92 62.6938C147.894 63.0233 147.854 63.3263 147.802 63.6426C147.723 64.2487 147.578 64.8548 147.421 65.4346C147.421 65.4346 147.395 65.4741 147.395 65.5004C147.316 65.7903 147.211 66.0934 147.119 66.3833C147.001 66.6863 146.896 66.963 146.778 67.2661C146.66 67.5428 146.528 67.8327 146.397 68.0962C146.371 68.1621 146.331 68.228 146.292 68.2939C146.2 68.5047 146.095 68.7023 145.977 68.8868C145.78 69.2557 145.57 69.5983 145.36 69.9409C145.176 70.244 144.966 70.5207 144.769 70.8106C144.743 70.8369 144.73 70.8501 144.717 70.8633C144.52 71.1268 144.31 71.3903 144.113 71.6275C143.877 71.9042 143.641 72.1546 143.404 72.3918C143.168 72.6289 142.932 72.8661 142.709 73.0769C142.656 73.1165 142.604 73.1692 142.551 73.2219C142.341 73.4063 142.105 73.5908 141.882 73.7753C141.383 74.1838 140.845 74.5527 140.267 74.8953C140.11 75.0007 139.926 75.1061 139.755 75.1983C139.65 75.2642 139.545 75.3301 139.44 75.3696C139.27 75.4619 139.099 75.5541 138.928 75.6332C138.482 75.844 138.049 76.0548 137.589 76.2129C137.55 76.2393 137.524 76.2525 137.471 76.2525C137.235 76.3447 137.012 76.4238 136.789 76.5028C136.277 76.6609 135.791 76.7927 135.266 76.9113C135.017 76.964 134.741 77.0167 134.492 77.0562C133.783 77.1616 133.048 77.2275 132.3 77.2539C131.486 77.2802 130.659 77.2539 129.884 77.1353C129.097 77.0299 128.309 76.8718 127.561 76.6609C120.945 74.8162 115.997 68.7682 115.813 61.508L115.314 41.2425C115.314 41.2425 129.701 44.9187 140.543 34.4829C142.643 38.2119 145.478 40.979 147.552 42.6919L147.959 59.6764L147.985 60.7305V60.7437Z" fill="#E88846"/>
<path d="M112.426 30.9912C112.426 30.9912 109.63 36.9996 106.415 39.8062C106.415 39.8062 121.785 45.0637 135.463 32.8622C135.463 32.8622 144.034 46.355 165.955 45.3008L163.724 37.8166C163.724 37.8166 170.431 3.28096 142.197 0.197656C113.962 -2.88565 112.426 30.9912 112.426 30.9912Z" fill="#F4E9DC"/>
<path d="M164.039 26.4453C164.958 24.3107 163.251 22.4001 161.125 22.2815C158.959 22.1497 156.636 23.3092 154.85 24.4424C153.577 25.2594 152.461 26.2608 151.477 27.3808C151.818 25.602 152.068 23.81 152.12 21.9916C152.146 20.5422 152.068 19.0928 151.766 17.6697C151.556 16.6419 151.306 15.5219 150.571 14.7313C149.941 14.0593 149.009 13.7826 148.156 14.2043C147.303 14.6259 146.83 15.5615 146.568 16.4311C145.872 18.7238 145.82 21.2932 146.213 23.6518C146.594 25.8918 147.421 28.0133 148.615 29.937C140.7 27.5389 132.3 26.7747 124.069 27.7893C120.223 28.2636 116.443 29.1201 112.768 30.3455C111.98 30.609 112.453 31.8213 113.24 31.5577C125.802 27.3676 139.755 27.7629 152.107 32.4801C155.612 33.8241 158.998 35.4975 162.175 37.5135C162.871 37.9615 163.698 36.9469 163.002 36.4989C159.602 34.338 155.966 32.5592 152.212 31.1493C154.194 30.8462 156.163 30.4773 158.093 29.937C160.167 29.3573 163.094 28.6326 164.039 26.4321V26.4453ZM147.316 19.5012C147.421 18.3549 147.552 16.9582 148.156 15.9436C149.049 14.4678 149.981 15.9436 150.269 16.945C150.663 18.3285 150.808 19.7911 150.834 21.2142C150.873 23.9417 150.361 26.6429 149.757 29.2914C148.589 27.4467 147.789 25.3911 147.46 23.217C147.277 21.9784 147.211 20.7266 147.329 19.4749L147.316 19.5012ZM151.096 30.0029C152.265 28.1977 153.8 26.6561 155.612 25.4965C156.583 24.8773 157.633 24.3765 158.723 24.0076C159.865 23.6255 161.361 23.2302 162.411 24.0603C163.553 24.9695 162.831 26.3794 161.86 27.0646C160.77 27.842 159.327 28.2373 158.053 28.6062C155.782 29.2782 153.433 29.6603 151.096 30.0029Z" fill="#AF3737"/>
<path d="M154.312 79.6784C151.464 93.5137 149.088 107.441 147.224 121.448C146.292 128.431 145.505 135.428 144.809 142.438C144.166 148.947 143.562 155.483 142.17 161.873C141.475 165.088 140.569 168.264 139.375 171.321C138.39 173.825 137.209 176.499 135.082 178.225C132.785 180.097 129.806 180.031 127.351 178.449C124.752 176.776 123.347 173.877 122.389 171.031C120.223 164.522 119.475 157.578 119.134 150.752C118.793 143.769 118.806 136.759 119.055 129.775C119.541 115.756 121.05 101.775 123.597 87.9927C123.912 86.2798 124.253 84.5669 124.594 82.8539C124.765 82.037 123.479 81.8261 123.308 82.6563C120.407 96.9132 118.596 111.394 117.913 125.941C117.572 133.122 117.493 140.317 117.703 147.498C117.913 154.534 118.491 161.61 120.276 168.435C121.68 173.838 124.503 180.9 131.131 180.993C137.169 181.072 139.86 174.128 141.462 169.371C143.588 163.033 144.625 156.392 145.36 149.751C146.148 142.662 146.778 135.547 147.631 128.471C149.39 113.977 151.687 99.5354 154.509 85.2125C154.864 83.4337 155.218 81.6549 155.586 79.8892C155.756 79.0723 154.47 78.8614 154.299 79.6916L154.312 79.6784Z" fill="#F2B34E"/>
<path d="M143.877 62.2063C146.146 62.2063 147.985 60.3598 147.985 58.0821C147.985 55.8043 146.146 53.9578 143.877 53.9578C141.608 53.9578 139.768 55.8043 139.768 58.0821C139.768 60.3598 141.608 62.2063 143.877 62.2063Z" fill="#C4532C"/>
<path d="M123.19 43.2585C123.032 42.8764 122.757 42.5206 122.363 42.3493C122.219 42.3098 122.087 42.2571 121.943 42.2175C121.654 42.1648 121.379 42.1912 121.103 42.2966L117.467 43.1794C117.099 43.2717 116.719 43.6801 116.561 44.0096C116.391 44.3785 116.338 44.8924 116.496 45.2745C116.653 45.6566 116.929 46.0124 117.322 46.1837C117.467 46.2232 117.598 46.2759 117.743 46.3154C118.031 46.3681 118.307 46.3418 118.583 46.2364L122.219 45.3536C122.586 45.2613 122.967 44.8528 123.124 44.5234C123.295 44.1545 123.347 43.6406 123.19 43.2585Z" fill="#36344C"/>
<path d="M132.365 42.7709C132.536 42.402 132.825 42.0462 133.232 41.9013C133.376 41.8618 133.507 41.8222 133.652 41.7827C133.94 41.7432 134.229 41.7827 134.492 41.8881L138.088 42.9291C138.456 43.0345 138.81 43.4561 138.955 43.7987C139.112 44.1677 139.138 44.6947 138.955 45.0637C138.784 45.4326 138.495 45.7884 138.088 45.9333C137.944 45.9728 137.813 46.0124 137.668 46.0519C137.379 46.0914 137.091 46.0519 136.828 45.9465L133.232 44.9055C132.864 44.8001 132.51 44.3785 132.365 44.0359C132.208 43.6669 132.181 43.1399 132.365 42.7709Z" fill="#36344C"/>
<path d="M133.967 68.4726C135.407 68.2988 136.386 66.594 136.155 64.6649C135.924 62.7358 134.569 61.3129 133.13 61.4867C131.69 61.6606 130.711 63.3654 130.942 65.2945C131.173 67.2236 132.527 68.6465 133.967 68.4726Z" fill="#C4532C"/>
<path d="M128.637 59.9531C127.351 59.8609 126.065 59.7555 124.765 59.6632C125.96 56.3296 127.141 52.9959 128.335 49.6623C128.585 48.9639 127.535 48.4896 127.285 49.1879C125.999 52.7719 124.726 56.3559 123.439 59.94C123.321 60.2562 123.466 60.7174 123.873 60.7437C125.395 60.8623 126.918 60.9677 128.44 61.0863C129.176 61.139 129.359 60.0058 128.624 59.9531H128.637Z" fill="#C4532C"/>
<path d="M137.274 62.5225C137.051 62.3381 136.644 62.3512 136.474 62.6016C135.161 64.5385 133.074 65.8562 130.764 66.1724C130.029 66.2778 130.16 67.4242 130.895 67.3188C133.481 66.963 135.896 65.5004 137.366 63.3263C137.537 63.0759 137.537 62.7202 137.288 62.5225H137.274Z" fill="#36344C"/>
<path d="M120.473 51.8891C121.654 51.8891 122.612 50.7387 122.612 49.3197C122.612 47.9006 121.654 46.7502 120.473 46.7502C119.291 46.7502 118.333 47.9006 118.333 49.3197C118.333 50.7387 119.291 51.8891 120.473 51.8891Z" fill="#36344C"/>
<path d="M134.229 51.8891C135.411 51.8891 136.369 50.7387 136.369 49.3197C136.369 47.9006 135.411 46.7502 134.229 46.7502C133.047 46.7502 132.09 47.9006 132.09 49.3197C132.09 50.7387 133.047 51.8891 134.229 51.8891Z" fill="#36344C"/>
</g>
<defs>
<clipPath id="clip0_12_793">
<rect width="202" height="503" fill="white"/>
</clipPath>
</defs>
</svg>
