<svg width="50" height="57" viewBox="0 0 50 57" fill="none" xmlns="http://www.w3.org/2000/svg">
<g clip-path="url(#clip0_11_3364)">
<path d="M4.24445 30.4068C2.41241 32.255 2.41241 35.259 4.24445 37.1073C6.07649 38.9555 9.05418 38.9555 10.8862 37.1073C12.7183 35.259 12.7183 32.255 10.8862 30.4068C9.05418 28.5585 6.07649 28.5585 4.24445 30.4068ZM9.91216 36.1246C8.6151 37.4331 6.51557 37.4331 5.21851 36.1246C3.92145 34.8161 3.92145 32.698 5.21851 31.3894C6.51557 30.0809 8.6151 30.0809 9.91216 31.3894C11.2092 32.698 11.2092 34.8161 9.91216 36.1246Z" fill="#FCB500"/>
<path d="M4.54725 20.8856C2.71521 22.7338 2.71521 25.7378 4.54725 27.5861C6.37928 29.4343 9.35698 29.4343 11.189 27.5861C13.0211 25.7378 13.0211 22.7338 11.189 20.8856C9.35698 19.0373 6.37928 19.0373 4.54725 20.8856ZM10.215 26.6034C8.91789 27.9119 6.81837 27.9119 5.5213 26.6034C4.22424 25.2949 4.22424 23.1768 5.5213 21.8682C6.81837 20.5597 8.91789 20.5597 10.215 21.8682C11.512 23.1768 11.512 25.2949 10.215 26.6034Z" fill="#FCB500"/>
<path d="M1.37781 25.5189C-0.454225 27.3671 -0.454225 30.3711 1.37781 32.2194C3.20985 34.0676 6.18754 34.0676 8.01958 32.2194C9.85162 30.3711 9.85162 27.3671 8.01958 25.5189C6.18754 23.6706 3.20985 23.6706 1.37781 25.5189ZM7.04552 31.2367C5.74846 32.5452 3.64893 32.5452 2.35187 31.2367C1.05481 29.9282 1.05481 27.8101 2.35187 26.5015C3.64893 25.193 5.74846 25.193 7.04552 26.5015C8.34258 27.8101 8.34258 29.9282 7.04552 31.2367Z" fill="#FCB500"/>
<path d="M19.9707 37.9219C17.9469 46.1651 22.9232 54.5 31.0942 56.5417C39.2652 58.5835 47.527 53.5632 49.5508 45.3199C51.5746 37.0767 46.5984 28.7418 38.4274 26.7001C30.2564 24.6584 21.9945 29.6787 19.9707 37.9219ZM45.2155 44.2354C43.7822 50.0602 37.9429 53.609 32.1742 52.163C26.4005 50.717 22.8828 44.8261 24.3161 39.0064C25.7495 33.1817 31.5888 29.6328 37.3574 31.0789C43.1311 32.5249 46.6488 38.4158 45.2155 44.2354Z" fill="#FCB500"/>
<path d="M20.6571 21.3896C23.9477 29.2052 32.8959 32.8507 40.643 29.531C48.39 26.2113 52.0036 17.184 48.713 9.36846C45.4224 1.55291 36.4742 -2.09264 28.7271 1.22705C20.9801 4.54675 17.3665 13.5741 20.6571 21.3896ZM44.5947 11.1352C46.9214 16.6596 44.3676 23.0342 38.8917 25.3814C33.4157 27.7286 27.097 25.1523 24.7703 19.6279C22.4437 14.1036 24.9975 7.72897 30.4734 5.38176C35.9493 3.03456 42.2681 5.61089 44.5947 11.1352Z" fill="#FCB500"/>
<path d="M14.8127 21.3693C14.6462 20.8092 14.8531 20.2288 15.2821 19.8826L11.7593 20.9365C11.083 21.1402 10.6944 21.8581 10.8963 22.5404C11.0982 23.2226 11.8098 23.6147 12.4861 23.411L16.0088 22.3622C15.4638 22.3112 14.9793 21.9345 14.8178 21.3744L14.8127 21.3693Z" fill="#FCB500"/>
<path d="M18.3758 21.0434L17.4674 21.3133C17.3513 21.7715 17.0081 22.1636 16.5236 22.3112C15.7918 22.5302 15.0246 22.1076 14.8076 21.3693C14.5906 20.631 15.0095 19.8571 15.7413 19.6381C16.2258 19.4956 16.7204 19.6381 17.0687 19.9589L17.9771 19.6891C17.2201 16.5985 17.4421 13.4774 18.4717 10.677L15.5596 11.5477C15.5596 11.5477 13.339 13.177 14.5906 17.4488C12.8847 20.6106 13.6065 23.0648 16.7406 24.7857C17.9922 29.0575 20.7327 29.2052 20.7327 29.2052L23.6448 28.3396C21.2728 26.5576 19.4054 24.0576 18.3758 21.0485V21.0434Z" fill="#FCB500"/>
<path d="M14.8329 35.3303C14.9944 34.7702 15.4789 34.3884 16.024 34.3374L12.4962 33.2988C11.8199 33.1002 11.1083 33.4922 10.9114 34.1745C10.7146 34.8568 11.1032 35.5747 11.7795 35.7733L15.3073 36.8119C14.8783 36.4708 14.6714 35.8904 14.8329 35.3303Z" fill="#FCB500"/>
<path d="M20.7378 27.474C20.7378 27.474 17.9973 27.6319 16.7608 31.9088C13.6317 33.6399 12.9201 36.094 14.631 39.2559C13.3945 43.5328 15.6202 45.1519 15.6202 45.1519L18.5323 46.0124C17.4926 43.2171 17.2655 40.096 18.0125 37.0003L17.104 36.7305C16.7608 37.0563 16.2612 37.1989 15.7767 37.0563C15.0449 36.8425 14.626 36.0686 14.8379 35.3303C15.0499 34.592 15.817 34.1694 16.5489 34.3833C17.0334 34.5258 17.3766 34.9179 17.4926 35.3761L18.4011 35.646C19.4206 32.6369 21.2829 30.1267 23.6499 28.3396L20.7378 27.4791V27.474Z" fill="#FCB500"/>
</g>
<defs>
<clipPath id="clip0_11_3364">
<rect width="50" height="57" fill="white"/>
</clipPath>
</defs>
</svg>
