<svg width="394" height="129" viewBox="0 0 394 129" fill="none" xmlns="http://www.w3.org/2000/svg">
<path d="M0 64.4752H154.258" stroke="#FCB500" stroke-width="0.75" stroke-miterlimit="10"/>
<path d="M239.742 64.4752H394" stroke="#FCB500" stroke-width="0.75" stroke-miterlimit="10"/>
<path d="M154.258 64.4752L197.025 1.40594L239.742 64.4752L197.025 127.594L154.258 64.4752Z" stroke="#FCB500" stroke-miterlimit="10"/>
<path d="M172.205 64.4753L197.025 27.8416L221.844 64.4753L197.025 101.109L172.205 64.4753Z" stroke="#FCB500" stroke-miterlimit="10"/>
<path d="M191.191 64.4752L197.025 55.9109L202.809 64.4752L197.025 73.0891L191.191 64.4752Z" fill="#FCB500"/>
<path d="M197.025 27.8416V1.40594" stroke="#FCB500" stroke-miterlimit="10"/>
<path d="M197.025 99.8218V127.594" stroke="#FCB500" stroke-miterlimit="10"/>
<path d="M221.844 64.4752H239.742" stroke="#FCB500" stroke-miterlimit="10"/>
<path d="M172.205 64.4752H154.258" stroke="#FCB500" stroke-miterlimit="10"/>
<path d="M343.866 49.6238H246.862L256.948 64.4753" stroke="#FCB500" stroke-width="0.75" stroke-miterlimit="10"/>
<path d="M50.1832 49.6238H147.138L137.102 64.4753" stroke="#FCB500" stroke-width="0.75" stroke-miterlimit="10"/>
</svg>
